<svg id="Layer_1" enable-background="new 0 0 501.147 501.147" height="512" viewBox="0 0 501.147 501.147" width="512" xmlns="http://www.w3.org/2000/svg"><g><path d="m451.419 137.557-117.375-95.806c-25.965-9.761-54.094-15.1-83.471-15.1-38.39 0-74.651 9.118-106.734 25.307l-121.083 145.316c-28.422 96.246 8.244 195.896 81.805 253.771l241.928 29.914c83.248-36.84 141.332-120.167 141.332-217.06 0-46.438-13.342-89.76-36.402-126.342z" fill="#88f1ae"/><path d="m394.881 75.592c-18.351-14.084-38.816-25.545-60.843-33.826l-120.142 390.655h-4.395-.052l-109.032-352.21c-29.664 24.278-53.342 55.597-68.476 91.409-3.593 8.503-6.647 17.065-9.184 25.654l81.807 253.767c14.809 11.652 31.114 21.611 48.683 29.508l129.475.41 144.593-369.283c-9.839-12.522-20.649-24.805-32.434-36.084z" fill="#4f7e5a"/><path d="m489.592 7.722c-3.544-4.853-9.192-7.722-15.2-7.722h-100.214c-8.263 0-15.56 5.389-17.99 13.287l-105.29 342.195-95.628-308.91-10.314-33.316c-2.44-7.882-9.729-13.256-17.98-13.256h-100.221c-6.009 0-11.657 2.869-15.2 7.722-3.544 4.853-4.558 11.106-2.729 16.83l144.907 456.204c5.62 2.51 11.368 4.811 17.238 6.888l159.281-.223c5.507-1.964 10.92-4.126 16.231-6.476l145.838-456.394c1.829-5.723.815-11.977-2.729-16.829z" fill="#ffd731"/><g><path d="m248.787 394.282-128.146-369.061-101.186-11.73 151.514 474.158c24.589 8.7 51.305 13.498 79.604 13.498 14.76 0 29.204-1.353 43.216-3.936l172.543-470.942-96.091-12.779-117.167 380.792z" fill="#e9a329"/><g><path d="m330.251 487.419 151.441-473.928h-111.451l23.452 31.752h44.519l-144.423 451.965c12.527-2.306 24.707-5.599 36.462-9.789z" fill="#f8e565"/><g><path d="m248.837 394.282h-.05l-117.881-380.791h-111.451l43.48 31.752h44.562l117.881 380.792z" fill="#f8e565"/></g></g></g><g><g><path d="m274.659 463.101c-.593 1.763-2.245 2.95-4.104 2.95-.002 0-.003 0-.004 0l-63.643-.057c-1.91-.002-3.593-1.255-4.143-3.084-34.792-115.758-69.032-234.212-102.145-348.766-6.606-22.854-13.81-47.658-20.434-70.539l8.912-.473c6.624 22.882 13.235 45.752 19.842 68.607 32.814 113.519 66.732 230.86 101.194 345.597l57.31.052c26.745-79.496 54.11-159.842 80.586-237.579 19.709-57.867 40.089-117.704 60.101-176.86l9.571-1.184c-20.015 59.165-41.763 122.965-61.473 180.836-26.802 78.69-54.516 160.06-81.57 240.5z" fill="#f8e565"/></g></g><g><g><g><path d="m70.386 310.841c2.77 5.427 3.38 15.733 13.894 19.743l9.457 3.607c-5.427 2.77-15.733 3.38-19.743 13.894l-3.607 9.457-3.607-9.457c-1.807-4.737-5.549-8.479-10.287-10.287l-9.457-3.607 9.457-3.607c4.737-1.807 8.479-5.549 10.287-10.287z" fill="#fff"/></g></g><g><g><path d="m221.853 66.239 4.881 12.795c2.445 6.41 7.508 11.472 13.917 13.917l12.795 4.881-12.795 4.881c-6.41 2.445-11.472 7.508-13.917 13.917l-4.881 12.795-4.881-12.795c-2.445-6.41-7.508-11.472-13.917-13.917l-12.795-4.881 12.795-4.881c6.41-2.445 11.472-7.508 13.917-13.917z" fill="#fff"/></g></g><g><g><path d="m406.292 280.669c4.239 8.304 5.167 24.056 21.245 30.189l14.46 5.516-14.46 5.516c-16.098 6.141-16.903 21.683-21.245 30.189-4.239-8.304-5.167-24.056-21.245-30.189l-14.46-5.516 14.46-5.516c16.098-6.141 16.902-21.683 21.245-30.189z" fill="#fff"/></g></g></g></g></svg>